#tb 0: 1/25
0,          0,          0,        1,   168000, 0x00000000
0,          1,          1,        1,   168000, 0x00000000
0,          2,          2,        1,   168000, 0x00000000
0,          3,          3,        1,   168000, 0x00000000
0,          4,          4,        1,   168000, 0x00000000
0,          5,          5,        1,   168000, 0x00000000
0,          6,          6,        1,   168000, 0x00000000
0,          7,          7,        1,   168000, 0x00000000
0,          8,          8,        1,   168000, 0x00000000
0,          9,          9,        1,   168000, 0x00000000
0,         10,         10,        1,   168000, 0x00000000
0,         11,         11,        1,   168000, 0x00000000
0,         12,         12,        1,   168000, 0xa6298d46
0,         13,         13,        1,   168000, 0x5d89d96c
0,         14,         14,        1,   168000, 0x16d994da
0,         15,         15,        1,   168000, 0xa8c6079b
0,         16,         16,        1,   168000, 0xdd1decac
0,         17,         17,        1,   168000, 0x6a96003c
0,         18,         18,        1,   168000, 0xef7f1ff4
0,         19,         19,        1,   168000, 0x90dc0126
0,         20,         20,        1,   168000, 0x7a2b1006
0,         21,         21,        1,   168000, 0xc7ca1345
0,         22,         22,        1,   168000, 0x8841c413
0,         23,         23,        1,   168000, 0xbaed0290
